<?xml version="1.0" encoding="utf-8"?>
<!-- Generator: Adobe Illustrator 24.1.0, SVG Export Plug-In . SVG Version: 6.00 Build 0)  -->
<svg version="1.1" id="Warstwa_1" xmlns="http://www.w3.org/2000/svg" x="0px" y="0px"
     viewBox="0 0 75 75" style="enable-background:new 0 0 75 75;" xml:space="preserve">
<style type="text/css">
	.st0{fill:#FFEE90;}
</style>
<path class="st0" d="M56,35c0-7.7-6.3-14-14-14s-14,6.3-14,14c0,3.9,1.6,7.5,4.2,10H32v12h15V48C52.2,46,56,40.9,56,35z"/>
<g id="light-bulb">
	<g id="Group_55" transform="translate(0 0)">
		<path id="Path_85" d="M37.5,20.4c-7-0.1-13.1,5-14.2,12c-0.5,4.1,0.8,8.2,3.6,11.2c2.4,2.6,3.8,6.1,3.8,9.7l0,5.6
			c0,2.3,1.9,4.2,4.2,4.1c0,0,0,0,0,0h5.4c2.3,0,4.2-1.8,4.2-4.1c0,0,0,0,0,0l0-5.6c-0.1-3.5,1.2-6.9,3.6-9.5
			c2.5-2.5,3.9-5.9,3.9-9.5C51.9,26.6,45.4,20.4,37.5,20.4z M42.4,58.9c0,1.1-0.9,2-2,2c0,0,0,0,0,0h-5.4c-1.1,0-2-0.8-2-1.9
			c0,0,0,0,0,0v-2.5h9.4L42.4,58.9L42.4,58.9z M46.5,42.3c-2.8,3-4.3,6.9-4.2,11v1h-9.4v-1c-0.1-4.1-1.6-8.1-4.4-11.1
			c-2.4-2.5-3.5-6-3-9.5c1-5.9,6.1-10.1,12.1-10.1c6.6-0.1,12.1,5.1,12.2,11.7C49.7,37.3,48.6,40.1,46.5,42.3L46.5,42.3z"/>
		<rect id="Rectangle_60" x="36.4" y="12" width="2.2" height="5.2"/>
		<path id="Path_86" d="M51,22l1.6,1.6l3.8-3.7l-1.6-1.6L51,22z"/>
		<rect id="Rectangle_61" x="57.6" y="35.4" width="5.4" height="2.2"/>
		<rect id="Rectangle_62" x="12" y="35.4" width="5.4" height="2.2"/>
		<path id="Path_87" d="M20.2,18.3l-1.6,1.6l3.8,3.7L24,22L20.2,18.3z"/>
	</g>
</g>
</svg>
