<?xml version="1.0" encoding="utf-8"?>
<!-- Generator: Adobe Illustrator 24.1.0, SVG Export Plug-In . SVG Version: 6.00 Build 0)  -->
<svg version="1.1" id="Warstwa_1" xmlns="http://www.w3.org/2000/svg" x="0px" y="0px"
     viewBox="0 0 75 75" style="enable-background:new 0 0 75 75;" xml:space="preserve">
<style type="text/css">
	.st0{fill:#F8D0FF;}
</style>
<circle id="Ellipse_41" class="st0" cx="39.4" cy="39.4" r="19"/>
<g id="clock">
	<path id="Path_115" d="M37.5,15.6c-12.1,0-21.9,9.8-21.9,21.9s9.8,21.9,21.9,21.9s21.9-9.8,21.9-21.9
		C59.3,25.4,49.6,15.7,37.5,15.6z M37.5,56.6c-10.6,0-19.1-8.6-19.1-19.1c0-10.6,8.6-19.1,19.1-19.1c10.6,0,19.1,8.6,19.1,19.1
		C56.6,48.1,48.1,56.6,37.5,56.6z"/>
	<path id="Path_116" d="M38.9,23.8h-2.7v14.2l8.6,8.6l1.9-1.9l-7.8-7.8L38.9,23.8z"/>
</g>
</svg>
