<?xml version="1.0" encoding="utf-8"?>
<!-- Generator: Adobe Illustrator 24.1.0, SVG Export Plug-In . SVG Version: 6.00 Build 0)  -->
<svg version="1.1" id="Warstwa_1" xmlns="http://www.w3.org/2000/svg" x="0px" y="0px"
     viewBox="0 0 75 75" style="enable-background:new 0 0 75 75;" xml:space="preserve">
<style type="text/css">
	.st0{fill:#A7E0FF;}
</style>
<path id="Path_67" class="st0" d="M44.9,13.8c2,1.7,3.6,3.8,4.6,6.2c0.7,1.6,1.2,3.3,1.3,5c0.1,1.7,0.1,3.4-0.3,5
	c-0.5,1.8-1.5,3.1-3,4.2c-1.3,0.9-2.6,1.4-4.2,1.3c-1.4,0-2.9-0.1-4.2-0.5c-1.6-0.4-2.4-1.3-3.3-2.7c-0.7-1-1.3-2.1-1-3.4
	c0.4-2,1.7-3.6,3-5.1c1.2-1.4,2.5-2.8,3.7-4.2c0.9-1.1,1.5-2.3,2.1-3.6C44.1,15.4,44.5,14.6,44.9,13.8z"/>
<g id="leaves">
	<path id="Path_61" d="M33.4,32.5c-1.2-1.8-1.7-4.1-1.3-6.3c0.4-2.4,1.9-3.9,3.5-5.5c1.8-1.8,3.6-3.6,4.2-7c0.1-0.5,0.6-0.9,1.2-0.8
		c0.2,0,0.5,0.2,0.6,0.4l0.2,0.2c3.2,3.9,7.2,8.7,6,15.4c-0.4,2.2-1.8,4.2-3.7,5.5c-1.7,1.2-3.8,1.7-5.9,1.3
		C36.2,35.3,34.5,34.1,33.4,32.5z M41.2,16.1c-0.9,2.3-2.4,4.4-4.2,6c-1.4,1.4-2.6,2.7-2.9,4.4c-0.5,2.9,1.2,6.5,4.5,7.2
		c1.5,0.3,3.1-0.1,4.4-1c1.4-1,2.5-2.5,2.8-4.2C46.6,23.4,43.9,19.5,41.2,16.1z"/>
	<path id="Path_64" d="M19,56.8h-6c-0.6,0-1-0.5-1-1V37.7c0-0.6,0.5-1,1-1c6.8,0,10.5,2.3,10.6,2.4c0.4,0.2,0.5,0.7,0.4,1.1L20,56
		C19.9,56.5,19.5,56.8,19,56.8L19,56.8z M14,54.8h4.2l3.6-14.4c-2.5-1.1-5.2-1.7-7.9-1.7L14,54.8z"/>
	<path id="Path_65" d="M38.1,60.8c-4.8,0-13.9-4-19-6.4c-0.5-0.2-0.7-0.8-0.5-1.3s0.8-0.7,1.3-0.5c3.9,1.9,13.6,6.2,18.1,6.2
		c4.9,0,16.4-5.8,19.8-7.5c-0.9-1.1-2.2-1.7-3.7-1.6c-2.2,0.2-4.4,0.7-6.5,1.5c-2.3,0.9-4.7,1.4-7.1,1.6c-4.2,0-9.7-2-9.9-2.1
		c-0.5-0.2-0.8-0.8-0.6-1.3c0.2-0.5,0.7-0.8,1.3-0.6c0.1,0,5.4,2,9.2,2c2.2-0.2,4.4-0.7,6.5-1.5c2.3-0.9,4.7-1.4,7.1-1.6
		c4.7,0,5.9,3.6,6,3.7c0.2,0.5,0,1-0.5,1.2C59.1,53,44.3,60.8,38.1,60.8z"/>
	<path id="Path_66" d="M45.2,51.9c-0.6,0-1-0.5-1-1v-1c0-1.4-0.9-2.6-2.3-2.9l-19.4-4.7c-0.5-0.1-0.9-0.7-0.7-1.2
		c0.1-0.5,0.7-0.9,1.2-0.7L42.3,45c2.3,0.5,3.9,2.6,3.9,4.9v1C46.2,51.5,45.7,51.9,45.2,51.9C45.2,51.9,45.2,51.9,45.2,51.9z"/>
</g>
</svg>
