<?xml version="1.0" encoding="utf-8"?>
<!-- Generator: Adobe Illustrator 24.1.0, SVG Export Plug-In . SVG Version: 6.00 Build 0)  -->
<svg version="1.1" id="Warstwa_1" xmlns="http://www.w3.org/2000/svg" x="0px" y="0px"
     viewBox="0 0 75 75" style="enable-background:new 0 0 75 75;" xml:space="preserve">
<style type="text/css">
	.st0{fill:#76D630;}
</style>
<ellipse id="Ellipse_33" class="st0" cx="28.2" cy="36.1" rx="10" ry="10.5"/>
<ellipse id="Ellipse_34" class="st0" cx="45.7" cy="30.6" rx="12.5" ry="12"/>
<g id="trees">
	<g id="Group_56">
		<path id="Path_88" d="M58.3,57.6H45.5V43.9c8.1-0.5,14.2-7.5,13.7-15.6c-0.5-8.1-7.5-14.2-15.6-13.7c-5.4,0.4-10.1,3.6-12.4,8.5
			c-6.6-2.4-13.9,1.1-16.2,7.7s1.1,13.9,7.7,16.2c1.1,0.4,2.2,0.6,3.3,0.7v9.8H15.2c-0.5,0-1,0.4-1,1s0.4,1,1,1h43c0.5,0,1-0.4,1-1
			S58.8,57.6,58.3,57.6z M21.4,37.9l4.5,3.6v4.4c-5.9-0.5-10.3-5.8-9.8-11.7s5.8-10.3,11.7-9.8c3.2,0.3,6.2,2,8,4.7
			c0.1,0.2,0.3,0.4,0.4,0.7l0,0c0,0,0,0,0,0.1c0.1,0.1,0.1,0.2,0.2,0.3l0,0c0.8,1.5,1.2,3.2,1.2,4.9c0,0.5,0,0.9-0.1,1.4
			c-0.6,5-4.7,8.9-9.7,9.3v-4.4l4.5-3.6c0.4-0.4,0.4-1,0.1-1.4c-0.3-0.4-0.9-0.4-1.3-0.1L27,39.7l-4.3-3.4c-0.4-0.3-1-0.3-1.4,0.2
			C21,36.9,21,37.5,21.4,37.9L21.4,37.9z M43.6,57.6H27.9v-9.8c3.9-0.3,7.5-2.4,9.6-5.7c1.9,1,3.9,1.6,6,1.7L43.6,57.6z M43.6,41.9
			c-1.8-0.1-3.5-0.6-5.1-1.5c0.1-0.1,0.1-0.2,0.1-0.3c0.1-0.2,0.1-0.4,0.2-0.5c0.1-0.3,0.2-0.6,0.3-0.9c0.1-0.2,0.1-0.4,0.2-0.5
			c0.1-0.3,0.1-0.7,0.2-1c0-0.2,0.1-0.3,0.1-0.5c0.1-0.5,0.1-1,0.1-1.5c0-0.5,0-1-0.1-1.4c0-0.2,0-0.3-0.1-0.5
			c0-0.3-0.1-0.5-0.1-0.8l4.2,3.1L43.6,41.9z M38.1,29.1L38.1,29.1C38.1,29,38,28.9,38,28.8c-0.3-0.5-0.6-0.9-0.9-1.3
			c0-0.1-0.1-0.1-0.1-0.2c-0.3-0.4-0.7-0.8-1-1.1c-0.1-0.1-0.1-0.1-0.2-0.2c-0.4-0.3-0.7-0.7-1.2-1c-0.1-0.1-0.1-0.1-0.2-0.1
			c-0.4-0.3-0.9-0.6-1.3-0.8l0,0c2.9-6.4,10.5-9.2,16.9-6.2s9.2,10.5,6.2,16.9c-1.9,4.2-6,7-10.6,7.4v-6.3L53,30
			c0.4-0.3,0.5-0.9,0.2-1.4c-0.3-0.4-0.9-0.5-1.3-0.2l-7.2,5.4L38.1,29.1z"/>
	</g>
</g>
</svg>
