<?xml version="1.0" encoding="utf-8"?>
<!-- Generator: Adobe Illustrator 24.1.0, SVG Export Plug-In . SVG Version: 6.00 Build 0)  -->
<svg version="1.1" id="Warstwa_1" xmlns="http://www.w3.org/2000/svg" x="0px" y="0px"
     viewBox="0 0 75 75" style="enable-background:new 0 0 75 75;" xml:space="preserve">
<style type="text/css">
	.st0{fill:#9C969E;}
	.st1{fill:#867E88;}
	.st2{fill:#AEA8AF;}
	.st3{fill:#EDEBED;}
	.st4{fill:#4B3F4E;}
</style>
<g id="elephant" transform="translate(0 -61.039)">
	<path id="Path_165" class="st0" d="M56.9,118.8h3.1c0.4,0,0.8-0.4,0.8-0.8c0,0,0,0,0-0.1c-0.2-2.2-0.5-7.8-0.5-8.9
		c0-1.3,1.8-9.8,0.6-14.3L58,97.7L56.9,118.8z"/>
	<path id="Path_166" class="st1" d="M32.1,100.5L26,111.2c-0.2,0.3-0.3,0.6-0.3,0.9l-0.4,3.1c0,0.3-0.1,0.5-0.2,0.8l-1,1.9
		c-0.2,0.3,0,0.7,0.3,0.8c0.1,0,0.2,0.1,0.3,0.1h5l1.3-7.2l5.7-6.8L32.1,100.5z"/>
	<path id="Path_167" class="st2" d="M60.9,92.2c-0.9-5.3-7.2-12.4-12.6-11.5s-7.2,1.8-12.6-0.9s-8.1-0.9-8.1-0.9
		c-2.7,0.9-6.1,0.3-8.5,1.4c-2,0.9-4.9,9.7-5.7,14.2c-0.2,1.1-0.4,2.1-0.5,3.2c0,2.8,0.6,9.1,2.7,12.7c0.3-0.6,0.7-1.1,1.2-1.5
		c-1.1-3.6-0.6-8.9-0.3-11.2c0.1-0.7,0.6-1.3,1.2-1.6c1.7-0.8,3.4-1.8,5-2.9c0.6-0.4,1.4-0.5,2.2-0.3c0.8,0.3,1.4,1,1.5,1.9
		l2.4,19.9c0,0.3,0,0.7-0.2,0.9l-1.1,2.3c-0.1,0.3,0,0.6,0.3,0.7c0.1,0,0.1,0,0.2,0h3.9c0.5,0,0.9-0.4,0.9-0.9c0,0,0,0,0,0v-16
		c0,0,7.2,6.1,16.5,3.6l2.4,2.7c0.3,0.3,0.4,0.7,0.4,1.2v5.5c0,0.2,0,0.4-0.1,0.7l-1,2.5c-0.1,0.3,0,0.6,0.3,0.7c0.1,0,0.1,0,0.2,0
		h5.5v-11.5C57.3,104.6,61.8,97.5,60.9,92.2z"/>
	<g id="Group_76" transform="translate(18.199 62.994)">
		<path id="Path_168" class="st0" d="M15.7,36.6L15.7,36.6c0,0,6.4,5.5,14.7,3.2L28,37.4c-0.3-0.3-0.7-0.5-1.2-0.5
			c-3.1-0.1-6.1-0.8-9-1.9c-0.8-0.3-1.7,0.1-2,1C15.7,36.2,15.7,36.4,15.7,36.6z"/>
		<path id="Path_169" class="st0" d="M9.1,18.4l-1.6,3.5c-1,2.2-0.7,4.8,0.9,6.7c0.1,0.1,0.2,0.2,0.3,0.4c0.3,0.3,0.8,0.3,1.1,0
			l0.2-0.2c0.4-0.4,0.8-0.8,1.1-1.2l1.1-1.3c0.6-0.7,1.1-1.4,1.6-2.2c0.5-0.8,0.8-1.7,1-2.6c0.4-2.2-0.8-4.7-2.9-4.9
			C10.7,16.4,9.5,17.2,9.1,18.4z"/>
	</g>
	<path id="Path_170" class="st3" d="M8.4,97.2c2-0.5,3.8-1.4,5.4-2.7c0.2-0.2,0.6-0.3,0.8-0.1c0.7,0.3,1.2,0.8,1.7,1.4
		c0.2,0.4,0.1,0.9-0.3,1.1c0,0,0,0,0,0c-1.3,0.7-4.6,2.1-7.5,0.8c-0.1-0.1-0.2-0.2-0.1-0.4C8.2,97.3,8.3,97.2,8.4,97.2z"/>
	<path id="Path_171" class="st4" d="M18.3,89.4c-0.4,0-0.8-0.4-0.8-0.8c0-0.4,0.4-0.8,0.8-0.8h0c0.4,0,0.8,0.4,0.8,0.8
		S18.7,89.4,18.3,89.4L18.3,89.4z"/>
	<path id="Path_172" d="M18.3,87.9L18.3,87.9c-0.4,0-0.7,0.3-0.7,0.7c0,0.4,0.3,0.7,0.7,0.7c0.4,0,0.7-0.3,0.7-0.7
		C19,88.2,18.7,87.9,18.3,87.9z"/>
	<path id="Path_173" d="M60.9,108c0-0.3,0.1-1.1,0.3-2.1c0.5-3.5,1.4-9.9,0.4-13.8c-0.7-3.2-2.4-6.2-4.7-8.5
		c-2.8-2.8-5.9-4.1-8.5-3.7c-0.7,0.1-1.4,0.2-2,0.3c-3.8,0.7-5.6,1-9.9-1.2c-5.1-2.6-8-1.2-8.6-0.9c-1.2,0.3-2.4,0.5-3.7,0.5
		c-1.6,0-3.2,0.3-4.7,0.9c-2.7,1.3-5.1,10.5-5.9,14.5c-1.8,1.2-3.8,2.1-5.9,2.6c-0.4,0.1-0.7,0.5-0.6,1c0,0.2,0.2,0.4,0.4,0.5
		c1.2,0.7,2.7,1.1,4.1,1.1c0.6,0,1.1-0.1,1.7-0.1c0.1,2.3,0.5,4.6,1.1,6.8c0.9,3.2,2.2,5.4,3.8,6.5c0.7,0.5,1.6,0.8,2.5,0.8
		c0.6,0,1.3-0.1,1.9-0.4c0.4-0.2,0.6-0.6,0.4-1.1c-0.2-0.4-0.6-0.6-1-0.5c-0.3,0.1-0.7,0.2-1,0.2c0,0,0,0-0.1,0
		c-1.3-0.3-2.8-1.9-2.9-7.6c0-2.3,0.1-4.5,0.5-6.8c2.2-1,4.4-2.3,6.4-3.7c0.2,0.2,0.4,0.4,0.6,0.6c0.3,0.2,0.6,0.4,1,0.4l1.3,11.2
		l-2.5,4.3c-0.2,0.4-0.4,0.9-0.4,1.3l-0.4,3.4c0,0.2-0.1,0.4-0.2,0.6l-1.6,3.1c-0.2,0.4,0,0.9,0.4,1.1c0.1,0.1,0.2,0.1,0.4,0.1h9.4
		c0.9,0,1.7-0.8,1.7-1.7v-9.1l2.8-3.6c0.2,0.1,0.5,0.2,0.8,0.3c2.2,1,4.7,1.5,7.1,1.5c1.5,0,3-0.2,4.4-0.6l2.1,2.4
		c0.2,0.2,0.2,0.4,0.2,0.6v5.5c0,0.1,0,0.2-0.1,0.4l-1.3,3.2c-0.2,0.4,0,0.9,0.5,1c0.1,0,0.2,0.1,0.3,0.1h8.8c0.9,0,1.7-0.8,1.7-1.7
		c0,0,0-0.1,0-0.1C61.4,115.7,60.9,109.2,60.9,108z M10.3,97.6c1.7-0.6,3.3-1.5,4.7-2.6c0.6,0.3,1.1,0.7,1.5,1.3
		C14.6,97.3,12.4,97.8,10.3,97.6z M16.1,104c0,1.2,0.1,2.5,0.3,3.7c-1-2.9-1.6-5.8-1.7-8.9c0.6-0.2,1.2-0.4,1.7-0.7
		C16.2,100,16.1,102,16.1,104L16.1,104z M25.4,116c0.2-0.4,0.3-0.7,0.3-1.1l0.4-3.4c0-0.2,0.1-0.5,0.2-0.7l1.4-2.4l0.8,6.5
		c0,0.2,0,0.4-0.1,0.5l-1.2,2.6h-2.8L25.4,116z M34.2,106.1v-2.6c0.4,0.3,0.8,0.5,1.4,0.9L34.2,106.1z M56.4,117.9h-4.1l0.8-2.1
		c0.1-0.3,0.2-0.6,0.2-0.9v-5.5c0-0.6-0.2-1.2-0.6-1.7l-4.9-5.6c-0.3-0.3-0.8-0.4-1.1-0.1s-0.4,0.8-0.1,1.1c0,0,0,0,0,0l1.7,1.9
		c-3.2,0.7-6.6,0.4-9.7-1c-1.5-0.6-3-1.5-4.3-2.5v-2c0-0.4-0.4-0.8-0.8-0.8c-0.4,0-0.8,0.4-0.8,0.8v18.4c0,0,0,0.1-0.1,0.1
		c0,0,0,0,0,0H29l0.9-1.9c0.2-0.4,0.3-0.9,0.2-1.4l-2.5-20.8c0.2-0.2,0.5-0.5,0.7-0.7c0.3-0.3,0.3-0.8,0-1.1c-0.3-0.3-0.8-0.3-1.1,0
		c0,0,0,0,0,0c-0.3,0.3-0.6,0.6-0.9,0.9c0,0-0.1,0-0.1,0c-1-0.9-1.8-2.1-2.1-3.4c-0.1-0.4-0.5-0.7-0.9-0.7c-0.4,0.1-0.7,0.5-0.7,0.9
		c0.2,0.9,0.5,1.7,1,2.4c-1.8,1.3-3.6,2.4-5.6,3.3c-0.6-1-1.6-1.8-2.7-2.3c0.5-2.5,1.2-4.9,2.1-7.3c1.5-4.1,2.5-4.8,2.7-4.9
		c1.3-0.5,2.7-0.8,4.2-0.8c0.7,0,1.4-0.1,2.1-0.2c-0.1,0.4,0.2,0.9,0.6,1c0.2,0,0.4,0,0.6-0.1c1.5-0.9,2.4-0.6,3-0.2
		c1.1,1.1,1.6,2.7,1.3,4.2c-0.4,1.5-1.1,3-2.1,4.2c-0.3,0.4-0.2,0.9,0.2,1.1s0.9,0.2,1.1-0.2c1.1-1.4,1.9-3.1,2.3-4.8
		c0.5-2.1-0.2-4.4-1.9-5.8c-0.2-0.1-0.3-0.2-0.5-0.3c1.7,0.1,3.3,0.6,4.8,1.4c4.8,2.4,7,2,10.9,1.3c0.6-0.1,1.2-0.2,1.9-0.3
		c2.1-0.4,4.8,0.8,7.1,3.2c2.1,2.1,3.6,4.7,4.3,7.6v0c0.5,3.1-1,7-2.2,10.2c-0.7,1.5-1.2,3.1-1.4,4.8L56.4,117.9L56.4,117.9z
		 M59.9,117.9C59.9,117.9,59.9,117.9,59.9,117.9l-1.8,0v-10.7c0.2-1.4,0.7-2.8,1.3-4.2c0.3-0.8,0.6-1.5,0.9-2.4
		c-0.2,1.9-0.4,3.6-0.6,4.9c-0.1,0.8-0.2,1.6-0.3,2.4C59.3,109.2,59.7,115.3,59.9,117.9C59.9,117.9,59.9,117.9,59.9,117.9
		L59.9,117.9z"/>
</g>
</svg>
